<?xml version="1.0" standalone="no"?>
<!DOCTYPE svg PUBLIC "-//W3C//DTD SVG 20010904//EN"
 "http://www.w3.org/TR/2001/REC-SVG-20010904/DTD/svg10.dtd">
<svg version="1.0" xmlns="http://www.w3.org/2000/svg"
 width="628.000000pt" height="364.000000pt" viewBox="0 0 628.000000 364.000000"
 preserveAspectRatio="xMidYMid meet">

<g transform="translate(0.000000,364.000000) scale(0.100000,-0.100000)"
fill="#000000" stroke="none">
<path d="M4828 2453 c7 -3 16 -2 19 1 4 3 -2 6 -13 5 -11 0 -14 -3 -6 -6z"/>
<path d="M1935 2251 c-6 -11 9 -23 19 -14 9 9 7 23 -3 23 -6 0 -12 -4 -16 -9z"/>
<path d="M2030 2250 c0 -5 5 -10 10 -10 6 0 10 5 10 10 0 6 -4 10 -10 10 -5 0
-10 -4 -10 -10z"/>
<path d="M4230 2225 c0 -8 7 -15 15 -15 8 0 15 7 15 15 0 8 -7 15 -15 15 -8 0
-15 -7 -15 -15z"/>
<path d="M4320 2225 c0 -8 7 -15 15 -15 8 0 15 7 15 15 0 8 -7 15 -15 15 -8 0
-15 -7 -15 -15z"/>
<path d="M2220 2217 c0 -8 12 -13 30 -12 17 0 30 5 30 12 0 8 -13 13 -30 13
-18 0 -30 -5 -30 -13z"/>
<path d="M2291 2214 c0 -11 3 -14 6 -6 3 7 2 16 -1 19 -3 4 -6 -2 -5 -13z"/>
<path d="M3990 2207 c0 -16 6 -23 22 -24 11 -1 25 -8 29 -15 7 -10 9 -10 9 2
0 13 1 13 10 0 7 -11 10 -5 10 23 0 37 0 37 -40 37 -35 0 -40 -3 -40 -23z m43
6 c-7 -2 -19 -2 -25 0 -7 3 -2 5 12 5 14 0 19 -2 13 -5z"/>
<path d="M3145 2210 c-3 -5 1 -10 10 -10 9 0 13 5 10 10 -3 6 -8 10 -10 10 -2
0 -7 -4 -10 -10z"/>
<path d="M2416 2185 c4 -8 8 -15 10 -15 2 0 4 7 4 15 0 8 -4 15 -10 15 -5 0
-7 -7 -4 -15z"/>
<path d="M284 2176 c-4 -10 -2 -22 4 -28 8 -8 13 -7 18 6 4 10 2 22 -4 28 -8
8 -13 7 -18 -6z"/>
<path d="M425 2181 c-3 -5 -1 -12 5 -16 5 -3 10 1 10 9 0 18 -6 21 -15 7z"/>
<path d="M2450 2171 c0 -22 31 -19 51 5 9 11 6 14 -20 14 -24 0 -31 -4 -31
-19z"/>
<path d="M2588 2168 c21 -22 22 -22 39 -4 17 18 17 18 1 13 -10 -3 -20 -2 -23
3 -4 6 -14 10 -23 10 -14 0 -13 -4 6 -22z"/>
<path d="M2720 2184 c0 -17 18 -36 30 -32 7 2 4 10 -9 22 -12 11 -21 15 -21
10z"/>
<path d="M2518 2166 c-27 -20 -22 -26 22 -26 38 0 40 2 30 20 -12 23 -28 25
-52 6z"/>
<path d="M2819 2178 c-8 -28 -5 -38 12 -38 17 0 18 3 9 20 -9 18 -18 25 -21
18z"/>
<path d="M2864 2164 c3 -8 6 -18 6 -20 0 -3 5 -2 10 1 15 9 12 22 -6 29 -12 5
-15 2 -10 -10z"/>
<path d="M2942 2160 c-11 -18 -10 -20 18 -20 28 0 30 2 20 20 -6 11 -14 20
-18 20 -4 0 -13 -9 -20 -20z"/>
<path d="M3079 2178 c-9 -30 -5 -38 18 -38 25 0 26 0 8 20 -17 19 -24 23 -26
18z"/>
<path d="M3142 2166 c1 -10 8 -17 13 -17 15 1 12 24 -3 29 -9 3 -13 -2 -10
-12z"/>
<path d="M3205 2160 c-18 -20 -18 -20 8 -20 28 0 32 6 19 28 -7 9 -13 8 -27
-8z"/>
<path d="M3326 2161 c-21 -23 -20 -30 2 -26 9 2 20 4 25 4 10 1 9 29 -2 35 -4
3 -16 -3 -25 -13z"/>
<path d="M3400 2168 c-13 -8 -12 -9 2 -4 11 3 18 -1 20 -12 2 -11 6 -13 11 -6
11 18 -15 35 -33 22z"/>
<path d="M3560 2159 c-22 -18 -22 -19 -3 -10 12 6 25 16 28 21 9 15 3 12 -25
-11z"/>
<path d="M3713 2168 c-13 -6 -23 -15 -23 -20 0 -10 36 7 45 22 7 12 7 12 -22
-2z"/>
<path d="M3826 2171 c-12 -5 -15 -10 -9 -14 6 -4 16 0 23 8 14 17 13 17 -14 6z"/>
<path d="M3461 2156 c-8 -9 -11 -19 -7 -23 9 -9 29 13 24 27 -2 8 -8 7 -17 -4z"/>
<path d="M3594 2149 c-19 -21 -19 -21 6 -18 14 2 26 12 28 22 5 23 -11 22 -34
-4z"/>
<path d="M3745 2150 c-18 -20 -17 -20 15 -20 29 0 31 2 19 18 -7 9 -14 18 -15
20 0 1 -9 -7 -19 -18z"/>
<path d="M2390 2151 c0 -5 5 -22 11 -38 6 -15 24 -80 40 -143 25 -95 30 -131
27 -207 -1 -51 -6 -93 -10 -93 -5 0 -8 -6 -8 -13 0 -24 -82 -74 -132 -80 -29
-4 -48 -3 -48 3 0 5 -10 10 -22 10 -13 0 -39 1 -58 1 -50 2 -156 -7 -167 -14
-5 -3 -27 -2 -49 3 -70 14 -204 21 -204 10 0 -5 15 -11 33 -11 l32 -1 -30 -8
c-19 -4 -38 -2 -51 6 -25 15 -39 7 -22 -13 8 -11 7 -12 -6 -7 -9 3 -16 10 -16
15 0 5 -33 9 -73 9 -106 0 -99 -31 -82 368 l7 142 -64 0 c-70 0 -94 10 -85 34
4 9 3 16 -2 16 -8 0 -21 -257 -21 -411 0 -93 -5 -109 -35 -109 -20 0 -22 4
-20 43 2 23 6 129 10 235 l7 192 -86 0 c-62 0 -86 3 -86 13 0 8 -4 7 -10 -3
-5 -8 -10 -58 -10 -110 -1 -176 -17 -362 -32 -371 -7 -5 -50 -8 -95 -5 -75 3
-83 2 -89 -16 -4 -13 -10 -16 -15 -11 -6 6 -6 20 1 37 17 45 13 56 -20 56 -26
0 -30 -4 -30 -26 0 -14 -11 -39 -25 -56 -21 -24 -25 -26 -25 -11 0 11 5 24 12
31 9 9 7 12 -10 12 -16 0 -22 -6 -23 -22 -1 -13 -3 -16 -5 -8 -4 12 -20 14
-88 12 -50 -3 -92 1 -105 7 -16 9 -37 9 -82 1 -45 -8 -64 -8 -75 1 -7 6 -28 9
-46 7 l-33 -3 3 50 c1 27 7 101 12 164 5 62 7 118 3 123 -13 22 -23 -22 -24
-107 -2 -157 -11 -219 -33 -223 -17 -4 -18 4 -12 155 4 87 9 184 12 216 l6 57
-50 0 c-63 0 -81 20 -20 21 24 1 49 1 55 0 7 -1 13 2 13 7 0 10 -160 4 -210
-9 -25 -6 -18 -7 29 -3 l63 6 -5 -83 c-4 -46 -10 -146 -13 -222 -5 -105 -10
-140 -21 -144 -8 -3 -15 -4 -17 -2 -2 3 4 151 15 359 l3 55 -34 0 -35 0 -7
-120 c-3 -66 -9 -161 -13 -212 l-7 -92 -34 -7 -34 -6 0 -794 0 -794 1379 0
1379 0 23 29 c12 16 28 27 35 24 7 -2 15 0 19 6 4 7 -4 11 -19 11 -14 0 -28 4
-31 10 -5 9 15 8 77 -5 10 -2 20 1 23 6 3 4 -6 11 -20 14 -14 3 -37 8 -52 11
-19 4 -23 8 -14 14 8 4 10 13 7 19 -4 6 -2 11 4 11 7 0 10 6 7 13 -2 7 4 24
15 37 19 24 29 20 41 -13 3 -11 97 -18 97 -7 0 11 -26 20 -63 21 -31 0 -32 0
-7 10 13 6 34 8 47 4 25 -6 40 10 17 19 -9 3 -31 6 -50 6 -19 0 -34 5 -34 11
0 8 13 9 41 5 24 -4 46 -2 54 4 17 14 74 1 85 -21 8 -14 6 -17 -7 -16 -26 1
-77 -34 -62 -43 6 -4 9 -12 5 -18 -3 -6 3 -14 15 -17 11 -4 18 -9 15 -12 -3
-3 6 -16 21 -29 l27 -23 -30 -7 c-16 -5 -32 -8 -36 -9 -3 0 -10 -4 -15 -9 -5
-5 1 -7 15 -3 28 7 29 -4 1 -21 -18 -12 -21 -11 -26 7 -3 12 -14 21 -25 21
-15 0 -18 -5 -13 -21 5 -14 2 -25 -6 -30 -19 -12 510 -10 533 2 12 6 18 6 18
0 0 -7 464 -10 1375 -11 l1375 0 0 494 0 494 -26 6 c-25 7 -25 8 -8 21 14 10
21 10 26 2 5 -7 8 -3 8 11 0 18 -5 22 -31 22 -20 0 -29 4 -26 13 2 6 16 11 31
10 l26 -2 0 244 0 244 -46 -3 c-71 -5 -74 1 -76 182 -4 262 -4 261 52 262 19
0 21 3 10 9 -17 10 -277 31 -361 30 -43 0 -49 -2 -31 -9 43 -18 21 -25 -65
-23 -141 4 -504 23 -550 29 l-43 6 0 -47 c0 -40 2 -46 14 -36 21 18 441 15
606 -4 81 -9 100 -16 100 -32 0 -9 -6 -12 -17 -9 -10 3 -47 6 -83 7 -51 1 -64
-1 -62 -12 2 -8 10 -18 18 -22 8 -4 14 -19 14 -32 0 -14 5 -25 10 -25 6 0 10
12 10 26 0 14 4 23 10 19 6 -3 10 -16 10 -28 0 -18 2 -19 10 -7 8 12 10 11 10
-7 0 -13 5 -23 10 -23 6 0 10 15 10 33 0 33 15 66 25 56 3 -4 9 -82 12 -174 6
-161 5 -167 -13 -163 -14 2 -20 14 -25 48 l-5 45 -5 -45 -4 -45 -72 -3 -72 -3
1 -40 c0 -22 -2 -43 -6 -46 -3 -4 -6 15 -6 40 l0 47 -209 0 c-115 0 -216 3
-225 6 -11 4 -16 0 -16 -14 0 -11 6 -23 13 -25 10 -4 10 -6 0 -6 -18 -1 -16
-21 2 -21 8 0 15 -4 15 -10 0 -5 -7 -10 -16 -10 -24 0 -12 -33 14 -40 20 -4
21 -7 10 -23 -7 -9 -30 -20 -51 -24 -36 -5 -37 -5 -37 26 0 24 4 31 20 31 11
0 20 6 20 14 0 7 -9 16 -20 19 -11 3 -20 1 -20 -4 0 -5 -25 -9 -56 -9 -40 0
-54 3 -51 13 2 8 19 11 48 9 25 -2 56 1 70 7 25 9 25 10 16 75 -11 73 -27 88
-27 26 0 -27 -4 -40 -14 -40 -23 0 -26 34 -26 278 0 217 1 232 18 232 10 0 22
-4 28 -8 5 -5 41 -6 79 -3 l70 6 -55 7 c-30 5 -92 8 -137 8 -79 0 -83 -1 -83
-22 0 -13 -1 -180 -1 -373 -1 -192 -4 -336 -8 -320 -4 17 -5 45 -3 63 l5 33
-114 -2 c-63 -1 -172 2 -244 6 -213 12 -283 12 -278 -2 5 -13 -34 -6 -43 8 -3
5 -35 9 -71 9 -83 0 -79 -8 5 -11 34 -1 62 -5 62 -9 0 -4 -25 -5 -56 -3 -31 2
-62 -1 -69 -7 -9 -7 -20 -6 -40 4 l-28 14 29 5 c16 2 -25 5 -91 6 -676 11
-895 12 -894 5 4 -21 -2 -28 -11 -14 -8 13 -11 13 -19 1 -7 -11 -10 -10 -12 4
-4 17 -5 18 -21 2 -18 -19 -33 -23 -23 -7 3 6 -1 10 -9 10 -8 0 -13 -6 -11
-12 4 -10 -46 -12 -242 -7 -137 3 -249 7 -250 8 -2 0 -3 5 -3 9 0 4 21 6 47 5
33 -2 44 0 36 8 -6 6 -40 9 -82 7 -46 -2 -71 1 -71 8 0 6 21 10 53 10 28 -1
62 2 73 6 12 3 25 4 29 0 4 -4 19 -7 33 -7 20 0 27 -5 27 -19 0 -19 9 -20 148
-21 82 -1 151 3 153 7 6 9 -63 12 -192 9 -50 -2 -85 2 -89 8 -8 13 -9 13 143
12 94 -2 122 1 122 11 0 9 2 10 8 2 5 -8 105 -11 347 -10 187 0 359 -2 382 -5
23 -3 47 -1 52 4 5 5 18 6 28 2 10 -4 57 -9 106 -11 69 -3 87 -1 87 10 0 18
-51 31 -61 15 -4 -7 -14 -9 -25 -4 -11 5 -23 7 -28 6 -16 -4 -46 11 -41 20 4
5 1 9 -4 9 -6 0 -11 -7 -11 -15 0 -16 -27 -20 -48 -6 -11 7 -10 10 3 15 9 3
21 4 26 0 5 -3 9 0 9 6 0 6 -10 15 -23 21 -23 10 -23 11 -19 185 3 171 3 174
-17 174 -28 0 -28 31 0 48 16 10 20 21 17 42 -4 26 0 31 30 43 30 12 0 13
-239 11 -164 -2 -280 1 -291 7 -10 6 -24 6 -31 2 -13 -9 -117 -11 -117 -3 0 8
-63 6 -76 -2 -6 -4 -27 -3 -47 3 -22 6 -44 6 -54 1 -15 -7 -78 -9 -78 -3 0 1
-97 4 -215 6 -266 6 -266 6 -262 28 2 11 -4 17 -18 17 -11 0 -20 -4 -20 -9z
m2664 -73 c-5 -8 -2 -9 9 -5 10 3 17 2 17 -3 0 -6 -9 -10 -20 -10 -11 0 -20 7
-20 15 0 8 5 15 11 15 5 0 7 -5 3 -12z m-2003 -58 c8 -13 10 -13 18 0 35 55
37 56 56 20 l18 -34 24 29 24 30 22 -28 23 -27 23 31 23 31 20 -32 19 -32 23
21 c27 25 33 26 52 6 9 -8 12 -15 8 -15 -4 0 -5 -3 -2 -6 4 -3 31 8 61 25 30
17 57 27 61 24 13 -13 5 -23 -20 -23 -22 0 -25 -2 -14 -15 10 -13 9 -15 -9
-15 -25 0 -26 -8 -6 -34 9 -11 15 -41 15 -68 0 -36 4 -48 15 -48 11 0 15 12
15 50 0 28 5 50 10 50 6 0 10 -22 10 -50 0 -43 3 -50 20 -50 18 0 20 7 20 65
0 37 4 65 10 65 12 0 14 -139 3 -141 -5 -1 -24 -2 -43 -4 -19 -2 -37 -4 -40
-5 -3 -1 -21 -2 -40 -2 -31 1 -32 0 -10 -6 22 -7 25 -14 28 -61 3 -50 1 -56
-28 -83 -26 -23 -35 -26 -52 -17 -11 6 -35 8 -54 4 -31 -5 -34 -4 -34 20 0 14
-4 25 -9 25 -13 0 -23 -18 -12 -22 4 -1 5 -11 2 -21 -6 -17 -9 -16 -36 8 -64
56 -108 65 -166 35 -31 -16 -58 -50 -59 -73 0 -12 -6 -17 -17 -15 -10 1 -24
-1 -30 -5 -18 -11 -33 0 -33 24 0 27 -28 24 -32 -3 -3 -21 -8 -23 -63 -23
l-60 0 -3 103 -3 102 46 0 c25 0 45 5 45 10 0 6 -31 10 -72 10 l-73 0 5 62 5
63 3 -57 c3 -50 6 -58 22 -58 17 0 20 7 20 55 0 42 5 60 20 75 20 20 20 20 0
20 -15 0 -19 6 -18 24 2 27 17 25 58 -7 25 -18 25 -18 39 2 17 26 37 27 53 1
17 -26 20 -26 42 12 20 33 23 32 57 -22z m399 46 c0 -2 -7 -6 -15 -10 -8 -3
-15 -1 -15 4 0 6 7 10 15 10 8 0 15 -2 15 -4z m237 -2 c-3 -3 -12 -4 -19 -1
-8 3 -5 6 6 6 11 1 17 -2 13 -5z m-1073 -115 c-1 -57 -2 -162 -3 -232 -1 -113
-3 -128 -17 -125 -15 3 -16 27 -15 227 1 124 5 229 7 233 3 5 11 7 17 5 8 -3
12 -37 11 -108z m1088 73 c6 -28 1 -408 -6 -447 -6 -31 -9 -34 -21 -21 -8 8
-15 24 -15 35 0 12 -4 21 -10 21 -16 0 -13 207 3 213 10 3 10 9 0 26 -19 30
-17 146 3 176 17 26 40 24 46 -3z m2208 17 c0 -7 3 -113 6 -237 5 -186 4 -224
-7 -220 -11 4 -16 54 -23 221 -5 119 -6 223 -3 232 7 17 27 20 27 4z m156
-236 c6 -194 5 -223 -8 -223 -12 0 -16 22 -21 107 -9 139 -9 338 0 347 17 17
22 -24 29 -231z m-3356 126 c0 -44 -4 -68 -10 -64 -18 11 -12 135 7 135 2 0 3
-32 3 -71z m-2550 -9 c0 -5 -5 -10 -11 -10 -5 0 -7 5 -4 10 3 6 8 10 11 10 2
0 4 -4 4 -10z m3617 -22 c-3 -8 -6 -5 -6 6 -1 11 2 17 5 13 3 -3 4 -12 1 -19z
m-1017 -163 c0 -57 -4 -95 -10 -95 -5 0 -10 15 -10 34 0 43 12 156 16 156 2 0
4 -43 4 -95z m840 40 c0 -30 5 -55 10 -55 6 0 10 -13 10 -29 0 -17 -4 -33 -10
-36 -5 -3 -10 -1 -10 4 0 6 -3 10 -7 10 -36 -6 -45 45 -21 122 16 55 28 48 28
-16z m177 -67 c-2 -24 -4 -5 -4 42 0 47 2 66 4 43 2 -24 2 -62 0 -85z m-237
63 c0 -28 -4 -53 -10 -56 -6 -4 -10 15 -10 49 0 31 5 56 10 56 6 0 10 -22 10
-49z m-833 -76 c0 -8 -4 -15 -9 -15 -4 0 -8 7 -8 15 0 8 4 15 8 15 5 0 9 -7 9
-15z m-2354 -82 c-7 -2 -19 -2 -25 0 -7 3 -2 5 12 5 14 0 19 -2 13 -5z m2128
-50 c12 -14 12 -16 0 -8 -8 5 -37 8 -65 8 l-51 -1 40 8 c61 11 62 11 76 -7z
m129 7 c0 -5 -4 -10 -10 -10 -5 0 -10 5 -10 10 0 6 5 10 10 10 6 0 10 -4 10
-10z m1168 1 c11 -7 11 -9 -1 -14 -16 -6 -27 0 -27 15 0 10 11 10 28 -1z
m-2401 -23 c-3 -8 -6 -5 -6 6 -1 11 2 17 5 13 3 -3 4 -12 1 -19z m983 13 c0
-4 -26 -11 -59 -15 -32 -4 -61 -9 -64 -12 -3 -3 -45 -8 -94 -11 -94 -5 -109 1
-28 13 28 4 91 12 140 19 50 7 93 13 98 14 4 0 7 -3 7 -8z m-893 -7 c-3 -3
-12 -4 -19 -1 -8 3 -5 6 6 6 11 1 17 -2 13 -5z m3848 -14 c3 -5 -3 -10 -15
-10 -12 0 -18 5 -15 10 3 6 10 10 15 10 5 0 12 -4 15 -10z m452 -12 c-3 -8 -6
-5 -6 6 -1 11 2 17 5 13 3 -3 4 -12 1 -19z m-3307 3 c0 -7 -24 -11 -61 -11
-34 0 -58 -4 -54 -9 3 -5 23 -8 45 -6 22 2 42 -1 45 -6 4 -5 -21 -9 -57 -10
-35 0 -88 -1 -120 -2 -31 -1 -54 1 -52 5 2 4 -8 5 -23 3 -16 -2 -32 -4 -36 -4
-5 -1 -5 -5 -2 -11 3 -5 -1 -10 -9 -10 -9 0 -16 5 -16 10 0 16 -22 12 -36 -7
-13 -17 -13 -17 -14 0 0 9 -4 17 -9 17 -5 0 -17 3 -25 6 -12 5 -15 2 -10 -12
4 -15 4 -16 -4 -5 -7 9 -31 14 -74 15 -59 1 -63 0 -62 -21 1 -13 -3 -20 -7
-17 -5 3 -9 13 -9 23 0 10 -7 18 -15 18 -8 0 -12 -3 -10 -7 2 -3 0 -12 -6 -20
-7 -12 -9 -10 -9 8 0 12 -5 22 -10 22 -6 0 -15 -10 -20 -22 l-9 -23 0 23 c-1
26 -19 29 -28 5 -6 -15 -7 -14 -13 3 -5 14 -2 21 14 25 12 4 0 6 -29 7 -46 0
-48 -1 -26 -12 14 -8 19 -16 13 -20 -6 -3 -13 0 -15 6 -4 10 -8 10 -15 -1 -11
-15 -27 2 -17 18 3 6 -19 12 -52 14 -32 2 10 4 92 5 100 1 145 -2 135 -8 -13
-8 -12 -10 3 -10 9 0 17 5 17 10 0 6 30 10 73 9 51 -1 65 -3 47 -9 -32 -10
-34 -10 168 -14 94 -1 172 1 172 6 0 4 -17 9 -37 9 l-38 2 40 6 c77 12 165 13
165 2z m-1206 -19 c2 -4 -7 -9 -22 -10 -21 -1 -24 0 -12 8 18 12 27 12 34 2z
m299 -17 c-3 -9 -8 -14 -10 -11 -3 3 -2 9 2 15 9 16 15 13 8 -4z m24 -17 c-3
-7 -5 -2 -5 12 0 14 2 19 5 13 2 -7 2 -19 0 -25z m76 17 c-3 -9 -8 -14 -10
-11 -3 3 -2 9 2 15 9 16 15 13 8 -4z m3746 9 c43 -9 41 -34 -4 -34 -19 0 -35
5 -35 10 0 6 -18 10 -40 10 -22 0 -40 5 -40 10 0 11 71 13 119 4z m-3779 -8
c0 -3 -4 -8 -10 -11 -5 -3 -10 -1 -10 4 0 6 5 11 10 11 6 0 10 -2 10 -4z
m1650 -6 c0 -5 -4 -10 -10 -10 -5 0 -10 5 -10 10 0 6 5 10 10 10 6 0 10 -4 10
-10z m70 0 c0 -5 -5 -10 -11 -10 -5 0 -7 5 -4 10 3 6 8 10 11 10 2 0 4 -4 4
-10z m-1963 -37 c-3 -10 -5 -4 -5 12 0 17 2 24 5 18 2 -7 2 -21 0 -30z m549
10 c-10 -10 -19 5 -10 18 6 11 8 11 12 0 2 -7 1 -15 -2 -18z m50 0 c-10 -10
-19 5 -10 18 6 11 8 11 12 0 2 -7 1 -15 -2 -18z m1614 23 c0 -3 -4 -8 -10 -11
-5 -3 -10 -1 -10 4 0 6 5 11 10 11 6 0 10 -2 10 -4z m543 -3 c-7 -2 -21 -2
-30 0 -10 3 -4 5 12 5 17 0 24 -2 18 -5z m-283 -18 c0 -8 -7 -15 -15 -15 -9 0
-12 6 -9 15 4 8 10 15 15 15 5 0 9 -7 9 -15z m104 3 c-3 -4 -9 -8 -15 -8 -5 0
-9 4 -9 8 0 5 7 9 15 9 8 0 12 -4 9 -9z m1161 2 c3 -5 -3 -10 -14 -10 -11 0
-23 5 -26 10 -3 6 3 10 14 10 11 0 23 -4 26 -10z m565 -16 c0 -8 -4 -14 -10
-14 -5 0 -10 9 -10 21 0 11 5 17 10 14 6 -3 10 -13 10 -21z m-1875 6 c3 -5 1
-10 -4 -10 -6 0 -11 5 -11 10 0 6 2 10 4 10 3 0 8 -4 11 -10z m215 0 c0 -5 -7
-7 -15 -4 -8 4 -15 8 -15 10 0 2 7 4 15 4 8 0 15 -4 15 -10z m60 0 c0 -5 -7
-7 -15 -4 -8 4 -15 8 -15 10 0 2 7 4 15 4 8 0 15 -4 15 -10z m1793 -17 c-7 -2
-21 -2 -30 0 -10 3 -4 5 12 5 17 0 24 -2 18 -5z m-233 -9 c0 -3 -7 -13 -16
-21 -13 -14 -17 -14 -25 -2 -14 23 -11 29 16 29 14 0 25 -3 25 -6z m-3760 -19
c0 -10 -9 -15 -27 -14 -24 2 -25 2 -5 6 12 2 22 9 22 14 0 5 2 9 5 9 3 0 5 -7
5 -15z m1120 3 c0 -14 -15 -16 -27 -3 -10 11 -9 13 7 12 11 -1 20 -5 20 -9z
m1530 2 c-14 -5 -46 -11 -73 -15 -55 -7 -54 -27 2 -25 20 1 38 1 41 0 48 -16
140 -24 140 -11 0 6 5 11 11 11 6 0 8 -7 5 -16 -5 -13 -2 -15 13 -11 11 3 22
0 23 -5 2 -5 15 -8 28 -6 25 5 23 6 -25 23 -20 7 -20 7 0 15 33 13 68 7 71
-12 1 -10 -2 -18 -7 -18 -5 0 -9 -4 -9 -9 0 -5 20 -12 45 -15 44 -7 56 -18 34
-32 -6 -3 -15 0 -20 7 -6 9 -12 10 -16 4 -13 -17 -63 -17 -63 0 0 22 -17 18
-23 -5 -3 -11 -13 -20 -24 -21 -14 0 -12 -3 7 -11 20 -9 22 -12 8 -15 -9 -2
-27 1 -39 7 -12 7 -47 14 -78 16 -31 2 -72 8 -91 13 -59 16 -142 30 -200 35
-165 13 -210 19 -210 26 0 5 10 11 23 13 22 4 16 5 -85 11 -20 2 -35 -1 -32
-6 8 -12 -140 -13 -200 -2 -58 12 -2 24 119 25 66 1 107 4 90 6 -141 16 -139
18 25 23 296 9 536 9 510 0z m73 3 c-7 -2 -21 -2 -30 0 -10 3 -4 5 12 5 17 0
24 -2 18 -5z m262 -3 c-3 -5 -17 -10 -31 -10 -13 0 -24 5 -24 10 0 6 14 10 31
10 17 0 28 -4 24 -10z m242 -6 c2 -6 -6 -10 -19 -8 -13 1 -26 3 -30 3 -5 1 -8
6 -8 12 0 13 52 7 57 -7z m833 -16 c0 -6 -7 -5 -15 2 -8 7 -15 17 -15 22 0 6
7 5 15 -2 8 -7 15 -17 15 -22z m-2645 4 c-3 -3 -11 0 -18 7 -9 10 -8 11 6 5
10 -3 15 -9 12 -12z m179 6 c-7 -12 -152 -10 -159 2 -4 7 24 10 79 9 47 -1 83
-6 80 -11z m1466 0 c0 -4 -7 -8 -15 -8 -8 0 -15 -4 -15 -10 0 -5 13 -10 28
-10 21 0 28 -5 29 -20 2 -23 2 -23 -31 -10 -19 7 -29 6 -38 -4 -14 -15 -58 -9
-58 9 0 7 14 15 30 19 17 3 30 9 29 13 -3 21 3 29 21 29 11 0 20 -4 20 -8z
m60 4 c0 -4 -11 -9 -25 -10 -14 -1 -25 3 -25 8 0 6 11 10 25 10 14 0 25 -4 25
-8z m-3623 -24 c-3 -8 -6 -5 -6 6 -1 11 2 17 5 13 3 -3 4 -12 1 -19z m4144 0
c10 -16 -28 -23 -78 -13 -30 5 -33 8 -22 22 16 18 87 12 100 -9z m-3702 8
c-11 -9 -69 -15 -64 -6 3 6 20 10 37 10 17 0 29 -2 27 -4z m3974 -7 c-8 -8
-22 -8 -50 -1 l-38 10 50 1 c36 1 46 -2 38 -10z m-3823 -20 c-52 -13 -145 -20
-134 -9 11 11 53 17 119 17 49 1 49 1 15 -8z m3850 -19 c-30 -3 -66 -3 -80 0
-16 3 -3 7 35 10 33 3 69 3 80 0 11 -3 -5 -7 -35 -10z m-4370 -10 c0 -11 -4
-20 -10 -20 -5 0 -10 5 -10 12 0 9 -3 9 -12 0 -8 -8 -16 -8 -32 0 -11 6 -33
11 -48 10 -15 0 -28 4 -28 9 0 5 32 9 70 9 63 0 70 -2 70 -20z m1697 14 c-3
-3 -12 -4 -19 -1 -8 3 -5 6 6 6 11 1 17 -2 13 -5z m846 -11 c-7 -2 -21 -2 -30
0 -10 3 -4 5 12 5 17 0 24 -2 18 -5z m-2196 -9 c-3 -3 -12 -4 -19 -1 -8 3 -5
6 6 6 11 1 17 -2 13 -5z m4269 -19 c20 -15 11 -20 -31 -15 -27 3 -32 9 -15 20
20 13 23 12 46 -5z m-3126 -5 c0 -5 -4 -10 -10 -10 -5 0 -10 5 -10 10 0 6 5
10 10 10 6 0 10 -4 10 -10z m1283 3 c-7 -2 -21 -2 -30 0 -10 3 -4 5 12 5 17 0
24 -2 18 -5z m1522 -3 c3 -5 -1 -10 -9 -10 -9 0 -16 5 -16 10 0 6 4 10 9 10 6
0 13 -4 16 -10z m144 -24 c-3 -3 -11 5 -18 17 -13 21 -12 21 5 5 10 -10 16
-20 13 -22z m264 27 c-7 -2 -19 -2 -25 0 -7 3 -2 5 12 5 14 0 19 -2 13 -5z
m-1180 -19 c53 -5 67 -10 63 -21 -4 -8 -6 -19 -6 -24 0 -5 -5 -9 -11 -9 -5 0
-7 5 -3 11 7 12 -12 29 -33 29 -7 0 -13 -7 -13 -15 0 -8 -5 -15 -11 -15 -6 0
-9 7 -5 15 3 9 0 15 -9 15 -8 0 -15 -4 -15 -10 0 -20 -28 -10 -34 13 l-7 22
-9 -22 c-12 -30 -20 -29 -20 3 0 22 3 25 23 21 12 -4 53 -9 90 -13z m807 1 c7
-9 8 -15 2 -15 -5 0 -12 7 -16 15 -3 8 -4 15 -2 15 2 0 9 -7 16 -15z m60 5 c0
-5 -8 -10 -17 -10 -15 0 -16 2 -3 10 19 12 20 12 20 0z m84 -19 c-14 -2 -15
-5 -3 -13 12 -8 11 -9 -1 -5 -8 2 -15 13 -16 25 -1 18 1 19 18 9 17 -11 17
-12 2 -16z m-4674 10 c0 -5 -9 -7 -20 -4 -11 3 -20 7 -20 9 0 2 9 4 20 4 11 0
20 -4 20 -9z m4730 -1 c0 -5 -4 -10 -10 -10 -5 0 -10 5 -10 10 0 6 5 10 10 10
6 0 10 -4 10 -10z m-3080 -67 c-11 -21 -31 -56 -43 -78 -12 -22 -24 -42 -28
-45 -3 -3 -13 -21 -22 -40 -31 -62 -79 -145 -93 -161 -8 -8 -14 -20 -14 -25
-1 -19 -39 -54 -59 -54 -21 0 -21 -1 -5 -25 15 -23 15 -27 0 -50 -9 -14 -22
-25 -29 -25 -6 0 -13 -14 -14 -30 -4 -55 -32 -89 -81 -96 -30 -4 -53 -16 -74
-38 -41 -42 -32 -26 87 149 155 228 179 264 227 340 131 205 163 249 166 233
2 -9 -6 -34 -18 -55z m3115 57 c-3 -5 -11 -10 -16 -10 -6 0 -7 5 -4 10 3 6 11
10 16 10 6 0 7 -4 4 -10z m142 4 c-3 -3 -12 -4 -19 -1 -8 3 -5 6 6 6 11 1 17
-2 13 -5z m-2701 -72 c-6 -6 -66 50 -66 62 0 5 16 -5 35 -24 19 -18 33 -35 31
-38z m1639 58 c-3 -5 -13 -10 -21 -10 -8 0 -14 5 -14 10 0 6 9 10 21 10 11 0
17 -4 14 -10z m-1978 -26 c-23 -25 -47 -31 -47 -13 0 6 7 8 16 5 9 -4 13 -2 8
5 -7 12 9 26 31 26 10 0 7 -7 -8 -23z m2039 10 c-3 -9 -6 -22 -6 -30 0 -8 -7
-14 -16 -14 -11 0 -14 5 -10 16 4 9 1 23 -5 30 -9 11 -6 14 16 14 21 0 26 -4
21 -16z m104 -3 c25 -5 39 -9 33 -10 -7 0 -13 -12 -13 -26 0 -14 -4 -25 -10
-25 -5 0 -10 8 -10 19 0 19 -30 34 -62 32 -9 -1 -19 3 -23 9 -7 12 20 12 85 1z
m-4337 -8 c-7 -2 -19 -2 -25 0 -7 3 -2 5 12 5 14 0 19 -2 13 -5z m-65 -10
c-10 -2 -26 -2 -35 0 -10 3 -2 5 17 5 19 0 27 -2 18 -5z m4096 -13 c36 -15
-31 -11 -99 5 l-60 14 69 -5 c38 -3 79 -10 90 -14z m394 1 c-9 -16 -14 -17
-25 -6 -19 19 -16 25 12 25 22 0 24 -2 13 -19z m92 0 c0 -6 -4 -13 -10 -16 -5
-3 -10 -15 -10 -26 0 -20 -12 -23 -45 -10 -19 8 -19 8 0 18 16 9 17 13 6 27
-12 14 -9 16 23 16 20 0 36 -4 36 -9z m-215 -11 c17 -7 15 -9 -12 -9 -17 -1
-35 4 -38 9 -7 12 22 12 50 0z m290 0 c17 -7 17 -9 3 -9 -12 -1 -18 -9 -18
-25 0 -14 -4 -27 -9 -30 -12 -8 -48 21 -38 30 4 5 12 2 16 -5 6 -9 11 -10 15
-2 9 14 -2 33 -15 26 -5 -4 -9 1 -9 9 0 17 23 20 55 6z m-1865 -197 c0 -10
-22 2 -50 27 -18 17 -37 30 -42 30 -4 0 -8 9 -8 20 0 11 -5 20 -10 20 -15 0
-69 62 -70 80 0 8 40 -28 90 -80 49 -52 90 -96 90 -97z m557 181 c-3 -3 -12
-4 -19 -1 -8 3 -5 6 6 6 11 1 17 -2 13 -5z m1395 -6 c-7 -7 -12 -22 -12 -35 0
-18 -6 -23 -25 -23 -14 0 -25 5 -25 10 0 6 7 10 15 10 8 0 15 7 15 16 0 10 -6
14 -15 10 -9 -3 -15 0 -15 9 0 11 11 15 37 15 29 0 34 -3 25 -12z m88 -8 c9
-6 10 -10 3 -10 -6 0 -13 -12 -15 -27 -3 -30 -38 -47 -38 -19 0 8 8 20 18 25
15 10 15 11 -5 17 -13 3 -23 10 -23 15 0 12 41 11 60 -1z m-5240 -10 c0 -5
-10 -10 -22 -10 -19 0 -20 2 -8 10 19 13 30 13 30 0z m59 -12 c-1 -16 -3 -18
-6 -6 -2 9 -14 19 -26 21 -18 4 -17 5 6 6 22 1 27 -3 26 -21z m2621 7 c39 -20
39 -39 2 -32 -28 6 -29 5 -28 -34 1 -26 -3 -39 -12 -39 -7 0 -10 -4 -7 -10 3
-5 1 -10 -4 -10 -6 0 -11 -4 -11 -10 0 -5 11 -10 25 -10 14 0 25 -3 25 -7 0
-16 -62 -8 -71 9 -6 11 -16 15 -26 11 -12 -5 -15 -2 -10 10 4 10 2 17 -5 17
-5 0 1 15 15 34 15 18 23 36 20 40 -4 3 6 6 21 6 23 0 27 4 23 20 -6 24 4 25
43 5z m2675 -5 c3 -5 1 -10 -4 -10 -6 0 -11 -13 -11 -30 0 -27 -3 -30 -30 -30
-23 0 -30 5 -30 19 0 10 6 18 13 17 6 0 12 4 12 9 0 6 -6 9 -12 9 -7 -1 -13 4
-13 12 0 16 65 20 75 4z m-5442 -7 c-7 -2 -21 -2 -30 0 -10 3 -4 5 12 5 17 0
24 -2 18 -5z m5041 -13 c7 -7 -7 -8 -39 -4 -77 11 -101 25 -30 19 33 -3 64
-10 69 -15z m504 11 c7 -1 10 -5 7 -11 -7 -12 -75 -14 -75 -2 0 15 12 22 34
17 12 -2 27 -4 34 -4z m-5624 -17 c9 -24 0 -29 -18 -11 -8 8 -12 17 -9 21 11
10 21 7 27 -10z m3012 5 c54 -14 56 -24 6 -27 -28 -2 -43 3 -57 18 -21 23 -13
25 51 9z m-3063 -6 c-7 -2 -21 -2 -30 0 -10 3 -4 5 12 5 17 0 24 -2 18 -5z
m5860 -13 c53 -10 65 -15 57 -25 -9 -11 -20 -10 -63 1 -68 18 -67 18 -67 -11
0 -14 -4 -25 -10 -25 -5 0 -10 11 -10 25 0 20 -6 27 -30 32 -17 3 -33 10 -37
16 -7 11 44 7 160 -13z m-543 -10 c0 -15 -57 -16 -73 -1 -4 4 11 8 33 9 23 2
40 -2 40 -8z m340 -30 c0 -5 -8 -10 -17 -10 -15 0 -16 2 -3 10 19 12 20 12 20
0z m75 1 c3 -5 1 -12 -5 -16 -5 -3 -10 1 -10 9 0 18 6 21 15 7z m85 -61 c11
-8 2 -9 -30 -4 -25 3 -47 8 -49 10 -9 9 65 3 79 -6z m-2720 -20 c12 -8 11 -10
-7 -10 -13 0 -23 5 -23 10 0 13 11 13 30 0z m355 -20 c23 -26 4 -26 -26 0 -18
15 -20 19 -8 20 9 0 24 -9 34 -20z m-575 -31 c-21 -29 -52 -37 -78 -21 -14 10
-6 41 12 43 6 1 21 3 34 4 12 1 25 5 29 8 3 4 10 4 15 1 4 -3 -1 -19 -12 -35z
m298 -11 c2 -10 -1 -18 -7 -18 -6 0 -10 6 -8 13 1 8 -8 11 -30 9 -17 -2 -34 2
-38 8 -5 8 6 10 36 8 32 -2 45 -8 47 -20z m320 -7 c25 -21 28 -31 9 -31 -22 0
-51 26 -43 38 9 15 9 15 34 -7z m-714 -7 c16 -6 12 -24 -5 -24 -6 0 -8 4 -5 9
4 5 0 12 -6 14 -7 3 -10 6 -6 6 3 1 13 -2 22 -5z m319 -1 c-7 -2 -19 -2 -25 0
-7 3 -2 5 12 5 14 0 19 -2 13 -5z m-268 -41 c-12 -12 -35 -10 -35 3 0 8 7 11
20 8 12 -3 18 -8 15 -11z m345 -2 c0 -5 -2 -10 -4 -10 -3 0 -8 5 -11 10 -3 6
-1 10 4 10 6 0 11 -4 11 -10z m423 -65 c9 -19 9 -19 -9 -5 -44 33 -53 43 -48
52 7 11 41 -18 57 -47z m-770 23 c3 -10 9 -10 29 1 20 10 30 10 47 2 22 -12
30 -36 9 -28 -7 2 -24 0 -38 -5 -14 -6 -38 -11 -54 -14 -16 -2 -31 -5 -33 -8
-6 -6 -63 14 -63 22 0 15 16 30 35 35 37 9 63 7 68 -5z m437 -23 c0 -19 -31
-23 -60 -8 -14 7 -19 13 -12 14 27 3 31 4 37 11 10 10 35 -2 35 -17z m-160 1
c0 -18 -15 -36 -31 -36 -17 0 -18 3 -7 20 11 17 38 28 38 16z m60 -6 c0 -5 -7
-7 -15 -4 -8 4 -15 8 -15 10 0 2 7 4 15 4 8 0 15 -4 15 -10z m2111 -28 c-7 -2
-18 1 -23 6 -8 8 -4 9 13 5 13 -4 18 -8 10 -11z m-2372 -29 c-9 -10 -7 -13 7
-13 30 -1 54 -24 43 -41 -5 -8 -9 -19 -9 -24 0 -15 73 -11 78 3 4 14 22 16 22
4 0 -12 -47 -32 -75 -32 -25 0 -42 -16 -30 -28 4 -4 10 -1 12 6 3 9 13 4 29
-15 27 -32 31 -45 9 -37 -8 4 -17 -1 -21 -10 -4 -10 -16 -15 -32 -14 -14 2
-27 -3 -30 -11 -3 -9 1 -11 16 -7 12 4 22 2 25 -7 3 -9 -5 -13 -30 -14 -40 -1
-51 16 -35 52 9 20 9 23 -3 18 -8 -3 -15 -15 -16 -27 0 -11 -3 -15 -6 -8 -5
14 -43 17 -43 3 0 -5 10 -12 23 -15 22 -6 22 -7 3 -21 -21 -16 -15 -19 37 -15
21 1 27 -3 27 -19 0 -12 -4 -22 -10 -22 -15 -2 -22 -4 -48 -13 -19 -6 -21 -10
-11 -22 15 -19 30 -18 23 1 -4 10 0 15 10 15 9 0 19 -7 22 -15 4 -8 18 -16 33
-16 25 -1 25 -2 -4 -8 -16 -4 -29 -12 -28 -18 3 -16 -45 -53 -69 -53 -12 0
-17 -5 -13 -12 4 -7 0 -5 -8 5 -16 19 -27 22 -27 6 0 -11 -29 -44 -31 -35 -1
3 -2 11 -3 17 -1 15 -46 32 -46 19 0 -6 -12 -10 -26 -10 -16 0 -24 5 -22 13 3
7 22 12 46 12 23 1 44 4 48 8 7 7 -16 11 -48 8 -9 -1 -19 3 -23 9 -3 5 -15 10
-26 10 -10 0 -19 5 -19 10 0 6 5 10 11 10 8 0 7 5 -1 15 -10 13 -15 13 -21 3
-4 -7 -11 -9 -15 -5 -4 3 -1 14 6 22 17 20 23 68 8 59 -7 -5 -8 -2 -3 5 4 7
15 11 24 8 10 -2 33 4 52 14 19 10 28 18 21 19 -7 0 -11 4 -8 9 13 20 -5 38
-31 33 -18 -3 -24 -1 -19 7 4 6 12 9 17 6 5 -3 6 1 3 10 -4 9 -13 14 -20 11
-26 -10 -14 9 14 21 15 7 43 10 65 6 24 -4 37 -2 37 6 0 6 -10 11 -22 11 -21
0 -21 0 -2 16 10 8 14 13 8 10 -6 -3 -11 2 -11 10 0 9 6 13 14 9 8 -3 22 -5
31 -5 15 -1 14 -3 -2 -15 -18 -14 -19 -15 -2 -15 14 0 17 -6 14 -25 -4 -20 1
-30 23 -46 19 -13 27 -16 23 -6 -3 10 7 17 38 23 37 8 43 13 41 32 -2 16 1 21
10 16 9 -6 9 -5 0 8 -7 8 -10 18 -6 21 3 4 1 7 -6 7 -7 0 -11 -7 -8 -15 4 -8
1 -17 -5 -21 -7 -4 -6 -9 3 -15 11 -7 9 -9 -6 -9 -30 0 -48 20 -34 37 7 8 8
13 1 13 -14 0 -23 43 -11 51 6 3 -6 10 -28 14 l-38 7 30 12 c39 16 101 1 84
-21z m366 17 c4 -6 -8 -9 -29 -8 -20 2 -36 6 -36 11 0 11 58 9 65 -3z m-100
-10 c3 -5 1 -10 -4 -10 -6 0 -11 5 -11 10 0 6 2 10 4 10 3 0 8 -4 11 -10z
m508 -24 c15 -22 15 -24 -1 -19 -10 2 -23 13 -30 24 -19 29 12 25 31 -5z
m-404 -5 c-25 -10 -21 -47 7 -60 22 -10 24 -14 14 -26 -17 -20 -7 -29 17 -17
12 7 25 7 34 1 12 -8 12 -9 -1 -9 -11 0 -11 -3 -2 -12 7 -7 12 -19 12 -27 0
-8 7 -23 17 -33 14 -16 14 -22 3 -43 -15 -27 -47 -33 -82 -14 -17 9 -18 13 -7
20 11 7 11 11 1 17 -7 5 -11 15 -9 23 2 8 2 11 0 7 -4 -6 -36 10 -63 30 -2 1
2 7 10 12 10 7 11 10 3 10 -7 0 -22 9 -33 20 -16 16 -17 20 -4 20 8 0 13 4 10
9 -3 5 1 12 10 15 8 3 12 11 9 17 -5 7 -11 5 -18 -4 -16 -19 -47 -29 -47 -16
0 7 -13 9 -30 7 -47 -7 -45 7 3 23 52 17 100 19 109 5 4 -6 8 -2 8 11 0 22 18
35 34 25 5 -3 3 -8 -5 -11z m-439 -5 c0 -3 -4 -8 -10 -11 -5 -3 -10 -1 -10 4
0 6 5 11 10 11 6 0 10 -2 10 -4z m10 -55 c-5 -11 -15 -22 -22 -24 -7 -3 0 -6
17 -6 l29 -1 -23 -16 c-30 -21 -45 -6 -36 35 5 22 12 31 26 31 16 0 18 -3 9
-19z m937 -43 c47 -45 45 -47 -23 -39 -7 0 -24 17 -38 36 l-27 35 28 0 c17 0
39 -12 60 -32z m-1154 -62 c4 -10 1 -13 -9 -9 -7 3 -14 9 -14 14 0 14 17 10
23 -5z m605 -30 c-21 -16 -24 -27 -4 -20 8 3 17 1 21 -5 3 -6 -2 -11 -12 -11
-15 0 -16 -2 -3 -10 13 -8 12 -10 -1 -15 -8 -3 -26 -2 -39 3 -18 7 -28 3 -47
-14 -21 -19 -28 -21 -44 -11 -10 6 -19 19 -19 29 0 9 -4 20 -10 23 -6 3 -7 -1
-4 -9 3 -9 4 -16 1 -16 -7 0 -57 45 -57 51 0 2 28 3 62 2 35 -1 63 -3 63 -3 0
-7 42 -7 50 -1 8 7 32 16 55 20 3 0 -3 -6 -12 -13z m-1020 -27 c-22 -13 -23
-29 -2 -29 30 0 8 -22 -43 -44 -29 -12 -64 -35 -79 -51 l-27 -30 18 30 c10 17
36 54 58 83 30 40 46 52 66 52 22 -1 24 -2 9 -11z m1693 -11 c1 -7 1 -22 0
-33 -2 -15 0 -17 7 -6 8 11 16 7 40 -20 35 -39 34 -49 -3 -25 -15 10 -25 12
-25 5 0 -6 -11 -1 -24 12 -15 14 -20 26 -14 30 7 4 7 9 -1 13 -6 4 -15 5 -20
1 -5 -3 -13 0 -17 6 -3 6 0 15 7 20 21 13 49 11 50 -3z m-676 -65 c-2 -10 -4
-24 -4 -32 -1 -8 -4 -11 -8 -8 -3 4 -12 -1 -20 -11 -11 -14 -12 -14 -7 -1 4
13 -5 19 -40 28 -25 6 -46 13 -46 16 0 6 45 -1 79 -11 21 -6 23 -5 19 14 -5
17 -2 22 12 22 12 0 17 -6 15 -17z m70 -3 c3 -5 13 -10 21 -10 8 0 12 5 9 10
-10 16 41 12 55 -5 7 -8 16 -13 20 -10 5 3 11 1 15 -5 3 -5 -2 -10 -12 -11
-10 0 -33 -1 -51 -2 -19 -1 -36 1 -39 5 -2 5 -12 8 -23 8 -10 0 -20 7 -24 15
-6 17 19 21 29 5z m-2410 -10 c-3 -5 -18 -9 -33 -9 l-27 1 30 8 c17 4 31 8 33
9 2 0 0 -3 -3 -9z m2560 -30 c3 -5 1 -10 -4 -10 -6 0 -11 5 -11 10 0 6 2 10 4
10 3 0 8 -4 11 -10z m-222 -25 c-3 -9 -8 -14 -10 -11 -3 3 -2 9 2 15 9 16 15
13 8 -4z m113 -61 c-9 -23 -25 -16 -18 8 4 17 2 20 -11 15 -20 -7 -31 8 -22
30 5 14 10 13 31 -11 14 -15 23 -34 20 -42z m29 36 c3 -5 1 -10 -4 -10 -6 0
-11 5 -11 10 0 6 2 10 4 10 3 0 8 -4 11 -10z m65 -30 c0 -16 4 -18 24 -10 22
8 24 6 21 -16 -3 -30 -3 -30 -48 -49 -33 -13 -37 -13 -45 1 -5 9 -13 14 -18
12 -5 -1 -10 12 -11 29 -2 18 1 32 5 32 4 -1 19 -1 34 0 21 1 26 5 21 18 -4
11 -3 14 5 9 7 -4 12 -16 12 -26z m-1275 -10 c3 -5 1 -11 -4 -11 -26 -3 -30
-4 -35 -9 -3 -3 -7 -21 -9 -40 -3 -19 -11 -46 -18 -60 -13 -23 -19 -25 -73
-22 -53 3 -62 0 -89 -25 -17 -15 -26 -21 -22 -13 18 32 70 107 102 148 33 40
37 42 88 42 30 0 57 -4 60 -10z m1996 -72 c38 -40 69 -76 69 -81 0 -14 -115 5
-127 21 -17 21 -16 37 1 23 11 -9 15 -7 18 7 5 18 -14 44 -29 40 -4 -1 -18 4
-30 12 -26 17 -32 45 -8 36 8 -3 15 -1 15 4 0 23 26 5 91 -62z m-623 -14 c-2
-2 -15 -5 -29 -7 -16 -3 -23 -10 -21 -21 2 -11 -5 -20 -18 -23 -20 -5 -19 -6
6 -20 15 -7 33 -12 40 -9 6 2 17 -6 24 -19 7 -13 22 -25 34 -27 17 -3 18 -4 5
-10 -10 -4 -25 1 -37 13 -12 10 -28 16 -36 13 -10 -4 -18 1 -22 10 -4 9 -14
16 -23 15 -9 -1 -23 1 -31 4 -8 3 -28 10 -45 16 -29 9 -29 10 -8 16 18 6 21
11 12 26 -8 17 -6 19 20 19 17 0 52 12 78 26 l48 25 3 -21 c2 -12 2 -23 0 -26z
m-626 -16 c22 -26 25 -34 14 -40 -8 -5 -25 -4 -38 1 -12 6 -17 10 -11 10 9 1
10 8 3 27 -18 46 -7 47 32 2z m-72 18 c0 -11 -19 -15 -25 -6 -3 5 1 10 9 10 9
0 16 -2 16 -4z m710 -29 c0 -8 -12 -19 -27 -26 -23 -11 -25 -10 -13 3 7 9 9
16 4 17 -7 0 18 14 34 18 1 1 2 -5 2 -12z m-693 -33 c-3 -3 -12 -4 -19 -1 -8
3 -5 6 6 6 11 1 17 -2 13 -5z m487 -3 c3 -5 0 -11 -8 -14 -15 -6 -26 1 -26 15
0 11 27 10 34 -1z m246 -16 c10 -12 9 -16 -4 -21 -24 -9 -47 3 -40 21 8 19 28
19 44 0z m-695 -45 c3 -5 1 -10 -4 -10 -6 0 -11 5 -11 10 0 6 2 10 4 10 3 0 8
-4 11 -10z m-978 -46 c-3 -3 -12 -4 -19 -1 -8 3 -5 6 6 6 11 1 17 -2 13 -5z"/>
<path d="M2900 1840 c0 -5 5 -10 10 -10 6 0 10 5 10 10 0 6 -4 10 -10 10 -5 0
-10 -4 -10 -10z"/>
<path d="M2985 1840 c-3 -5 -1 -10 4 -10 6 0 11 5 11 10 0 6 -2 10 -4 10 -3 0
-8 -4 -11 -10z"/>
<path d="M3065 1840 c-3 -5 -1 -10 4 -10 6 0 11 5 11 10 0 6 -2 10 -4 10 -3 0
-8 -4 -11 -10z"/>
<path d="M3135 1840 c-3 -5 1 -10 10 -10 9 0 13 5 10 10 -3 6 -8 10 -10 10 -2
0 -7 -4 -10 -10z"/>
<path d="M3178 1833 c7 -3 16 -2 19 1 4 3 -2 6 -13 5 -11 0 -14 -3 -6 -6z"/>
<path d="M3218 1833 c7 -3 16 -2 19 1 4 3 -2 6 -13 5 -11 0 -14 -3 -6 -6z"/>
<path d="M3378 1833 c7 -3 16 -2 19 1 4 3 -2 6 -13 5 -11 0 -14 -3 -6 -6z"/>
<path d="M3350 1746 c0 -31 14 -40 30 -21 15 18 6 45 -15 45 -9 0 -15 -9 -15
-24z"/>
<path d="M3415 1750 c-7 -11 12 -50 24 -50 15 0 33 29 27 45 -6 17 -41 20 -51
5z"/>
<path d="M1795 1510 c3 -5 12 -7 20 -3 21 7 19 13 -6 13 -11 0 -18 -4 -14 -10z"/>
<path d="M1888 1513 c6 -2 18 -2 25 0 6 3 1 5 -13 5 -14 0 -19 -2 -12 -5z"/>
<path d="M1938 1513 c7 -3 16 -2 19 1 4 3 -2 6 -13 5 -11 0 -14 -3 -6 -6z"/>
<path d="M4225 1402 c-86 -5 -77 -22 12 -22 65 0 83 3 94 18 13 15 12 16 -3 3
-10 -7 -18 -9 -18 -4 0 9 -7 10 -85 5z"/>
<path d="M4136 1361 c-6 -10 43 -25 52 -16 3 3 -2 5 -11 5 -9 0 -17 5 -17 10
0 12 -17 13 -24 1z"/>
<path d="M4429 1349 c-11 -7 -10 -9 4 -9 9 0 18 0 20 -1 1 0 21 -4 44 -8 32
-6 40 -5 36 5 -2 7 -11 10 -19 7 -8 -3 -22 -2 -31 2 -29 13 -39 13 -54 4z"/>
<path d="M4550 1332 c0 -5 7 -13 16 -16 22 -8 24 -8 24 6 0 6 -3 8 -7 5 -3 -4
-12 -2 -20 4 -8 7 -13 8 -13 1z"/>
<path d="M4611 1314 c0 -11 3 -14 6 -6 3 7 2 16 -1 19 -3 4 -6 -2 -5 -13z"/>
<path d="M4637 1317 c-4 -11 3 -18 24 -22 36 -8 39 -6 28 20 -6 17 -8 17 -8 3
-1 -22 -17 -23 -29 -2 -8 14 -10 14 -15 1z"/>
<path d="M2996 825 c-11 -8 -17 -18 -13 -21 10 -11 37 4 37 21 0 18 0 18 -24
0z"/>
<path d="M3139 597 c6 -8 8 -17 4 -20 -8 -9 20 -9 42 -1 13 5 11 9 -11 20 -34
18 -50 18 -35 1z"/>
<path d="M3030 480 c0 -5 7 -10 16 -10 8 0 12 5 9 10 -3 6 -10 10 -16 10 -5 0
-9 -4 -9 -10z"/>
<path d="M2944 459 c-3 -6 -19 -9 -35 -7 -16 3 -29 1 -29 -3 0 -11 49 -17 91
-12 35 5 37 7 22 19 -22 16 -40 18 -49 3z"/>
<path d="M3020 450 c0 -5 5 -10 11 -10 5 0 7 5 4 10 -3 6 -8 10 -11 10 -2 0
-4 -4 -4 -10z"/>
<path d="M3055 400 c-4 -6 -4 -10 -1 -10 2 0 11 -3 20 -6 9 -3 16 -2 16 4 0
14 -28 23 -35 12z"/>
<path d="M3032 378 c5 -15 28 -23 28 -10 0 5 -7 13 -16 16 -10 4 -14 1 -12 -6z"/>
<path d="M3360 490 c0 -5 7 -10 15 -10 8 0 15 5 15 10 0 6 -7 10 -15 10 -8 0
-15 -4 -15 -10z"/>
<path d="M3630 269 c0 -5 5 -7 10 -4 6 3 10 8 10 11 0 2 -4 4 -10 4 -5 0 -10
-5 -10 -11z"/>
<path d="M2680 2150 c0 -5 9 -10 21 -10 11 0 17 5 14 10 -3 6 -13 10 -21 10
-8 0 -14 -4 -14 -10z"/>
<path d="M4453 2153 c15 -2 37 -2 50 0 12 2 0 4 -28 4 -27 0 -38 -2 -22 -4z"/>
<path d="M3870 2140 c-8 -5 -12 -12 -8 -15 9 -9 48 4 48 16 0 12 -21 11 -40
-1z"/>
<path d="M5248 2133 c7 -3 16 -2 19 1 4 3 -2 6 -13 5 -11 0 -14 -3 -6 -6z"/>
<path d="M5947 2134 c-3 -3 -3 -12 -1 -19 4 -9 -4 -15 -23 -18 -23 -3 -22 -4
10 -6 33 -1 37 2 37 24 0 24 -10 32 -23 19z"/>
<path d="M5398 2123 c7 -3 16 -2 19 1 4 3 -2 6 -13 5 -11 0 -14 -3 -6 -6z"/>
<path d="M5448 2123 c6 -2 18 -2 25 0 6 3 1 5 -13 5 -14 0 -19 -2 -12 -5z"/>
<path d="M5588 2113 c6 -2 18 -2 25 0 6 3 1 5 -13 5 -14 0 -19 -2 -12 -5z"/>
<path d="M4788 2103 c23 -2 59 -2 80 0 20 2 1 4 -43 4 -44 0 -61 -2 -37 -4z"/>
<path d="M4925 2100 c7 -11 75 -14 75 -2 0 4 -18 8 -41 10 -26 2 -38 -1 -34
-8z"/>
<path d="M5748 2103 c7 -3 16 -2 19 1 4 3 -2 6 -13 5 -11 0 -14 -3 -6 -6z"/>
<path d="M383 2093 c15 -2 37 -2 50 0 12 2 0 4 -28 4 -27 0 -38 -2 -22 -4z"/>
<path d="M5843 2093 c9 -2 25 -2 35 0 9 3 1 5 -18 5 -19 0 -27 -2 -17 -5z"/>
<path d="M1089 2086 c-2 -2 -139 -7 -304 -10 -165 -4 -319 -9 -342 -12 -23 -2
-44 0 -48 6 -12 20 -20 9 -19 -26 2 -31 14 -64 14 -36 0 22 273 39 299 18 12
-9 13 -8 6 3 -6 11 -5 12 6 5 8 -5 99 -10 203 -11 105 -1 196 -5 203 -7 9 -4
13 6 13 34 0 27 -4 40 -13 40 -8 0 -16 -2 -18 -4z"/>
<path d="M1660 2070 c0 -18 7 -20 54 -20 34 0 56 5 59 13 4 10 6 10 6 0 1 -18
21 -16 21 2 0 9 9 15 23 14 16 -1 18 -2 5 -6 -31 -8 -19 -23 17 -23 28 0 35 4
35 20 0 11 -5 20 -11 20 -5 0 -7 -4 -4 -10 3 -5 1 -10 -4 -10 -6 0 -11 5 -11
10 0 6 -38 10 -95 10 -88 0 -95 -1 -95 -20z"/>
<path d="M5993 2083 c9 -2 25 -2 35 0 9 3 1 5 -18 5 -19 0 -27 -2 -17 -5z"/>
<path d="M43 2073 c9 -2 23 -2 30 0 6 3 -1 5 -18 5 -16 0 -22 -2 -12 -5z"/>
<path d="M6138 2073 c6 -2 18 -2 25 0 6 3 1 5 -13 5 -14 0 -19 -2 -12 -5z"/>
<path d="M4400 2051 c0 -16 6 -21 28 -22 15 -1 61 -3 103 -5 70 -4 77 -3 82
16 4 16 0 20 -21 20 -15 0 -64 3 -109 6 -80 6 -83 6 -83 -15z"/>
<path d="M4710 1831 c0 -217 -2 -241 -18 -262 -14 -17 -28 -22 -57 -21 -20 1
-44 7 -51 13 -10 8 -14 8 -14 0 0 -6 -4 -11 -10 -11 -5 0 -10 8 -10 17 0 12
-3 14 -11 6 -7 -7 -21 -8 -41 -3 -16 5 -40 5 -53 0 -12 -5 -25 -6 -28 -3 -3 2
-34 6 -69 8 -48 2 -65 -1 -74 -13 -11 -15 -17 -15 -66 1 -60 19 -208 24 -208
7 0 -5 12 -10 26 -10 21 0 25 -4 21 -20 -4 -17 0 -20 28 -20 37 0 56 16 28 23
-10 3 -5 5 12 6 17 0 48 -4 70 -10 62 -15 354 -25 408 -13 21 4 27 2 27 -11 0
-15 1 -15 16 0 10 10 23 13 33 9 9 -4 89 -7 178 -8 l162 -1 6 24 c9 35 -6 515
-17 522 -4 3 -23 5 -41 4 l-32 -2 4 -229 c2 -126 7 -230 12 -232 20 -8 7 -18
-23 -18 l-33 0 0 240 0 241 -87 3 -88 3 0 -240z"/>
<path d="M595 1980 c-11 -18 5 -32 21 -19 8 6 17 9 21 5 3 -3 1 -6 -5 -6 -7 0
-12 -15 -12 -35 0 -24 5 -35 15 -35 9 0 15 9 15 23 0 35 15 50 51 52 19 1 28
0 22 -2 -19 -7 -17 -73 2 -73 9 0 15 9 15 23 0 33 22 59 43 51 12 -4 17 -18
17 -43 1 -29 2 -33 11 -18 5 9 8 32 6 50 l-3 32 -106 3 c-66 2 -109 -1 -113
-8z"/>
<path d="M876 1982 c-23 -5 -20 -22 4 -22 17 0 20 -7 20 -39 0 -32 3 -39 18
-37 12 2 18 14 20 39 3 34 6 37 35 37 32 0 32 -1 29 -40 -4 -35 -2 -40 17 -40
17 0 21 7 22 33 1 17 1 35 0 40 0 4 17 7 39 7 22 0 40 4 40 9 0 9 -208 20
-244 13z"/>
<path d="M438 1974 c-12 -11 4 -42 20 -39 10 2 19 4 22 4 3 1 -2 6 -10 11 -11
7 -2 10 33 10 26 0 47 5 47 10 0 10 -102 14 -112 4z"/>
<path d="M1660 1936 c0 -25 1 -26 65 -24 55 2 65 5 65 20 0 15 -9 18 -49 18
-27 0 -56 3 -65 6 -12 5 -16 0 -16 -20z"/>
<path d="M500 1924 c0 -14 4 -23 10 -19 6 3 10 15 10 26 0 10 -4 19 -10 19 -5
0 -10 -12 -10 -26z"/>
<path d="M1100 1915 c0 -19 5 -35 10 -35 6 0 10 16 10 35 0 19 -4 35 -10 35
-5 0 -10 -16 -10 -35z"/>
<path d="M1800 1931 c0 -16 6 -19 38 -17 20 1 36 5 35 9 -2 4 -3 12 -3 17 0
14 -37 12 -43 -2 -4 -10 -6 -10 -6 0 -2 20 -21 14 -21 -7z"/>
<path d="M5150 1898 c0 -28 5 -48 11 -48 7 0 10 15 7 40 -3 31 0 39 10 35 8
-3 20 -5 28 -5 8 0 14 -10 14 -24 0 -15 7 -26 20 -29 17 -4 20 0 20 29 0 31 3
34 29 34 27 0 30 -3 33 -37 2 -27 8 -39 21 -41 14 -3 17 4 17 38 0 37 2 41 22
38 11 -2 23 3 26 10 3 11 -22 13 -127 11 l-131 -3 0 -48z"/>
<path d="M5441 1908 c4 -24 8 -46 9 -50 0 -5 5 -8 10 -8 6 0 10 16 10 35 0 31
3 35 25 35 18 0 25 -5 25 -19 0 -30 11 -51 26 -51 9 0 14 12 14 35 0 28 4 35
19 35 20 0 31 -18 31 -51 0 -10 6 -19 14 -19 8 0 14 6 13 13 -1 32 4 47 17 47
20 0 28 27 10 34 -9 3 -64 6 -123 6 l-108 0 8 -42z"/>
<path d="M4400 1916 l0 -26 110 0 c103 0 110 1 110 20 0 19 -7 20 -94 20 -52
0 -101 3 -110 6 -12 5 -16 0 -16 -20z"/>
<path d="M620 1790 c0 -16 4 -30 9 -30 13 0 21 27 15 45 -10 25 -24 17 -24
-15z"/>
<path d="M700 1790 c0 -20 5 -30 15 -30 10 0 15 10 15 30 0 20 -5 30 -15 30
-10 0 -15 -10 -15 -30z"/>
<path d="M802 1790 c0 -19 2 -27 5 -17 2 9 2 25 0 35 -3 9 -5 1 -5 -18z"/>
<path d="M890 1790 c0 -23 4 -30 20 -30 16 0 20 7 20 30 0 23 -4 30 -20 30
-16 0 -20 -7 -20 -30z"/>
<path d="M994 1796 c-7 -28 1 -46 20 -46 8 0 16 15 18 35 3 28 1 35 -14 35
-10 0 -20 -10 -24 -24z"/>
<path d="M1103 1785 c0 -22 2 -30 4 -17 2 12 2 30 0 40 -3 9 -5 -1 -4 -23z"/>
<path d="M1650 1800 c0 -19 7 -20 110 -20 103 0 110 1 110 20 0 19 -7 20 -110
20 -103 0 -110 -1 -110 -20z"/>
<path d="M4400 1780 c0 -20 5 -21 107 -18 92 3 106 5 109 21 2 15 -9 17 -107
17 -103 0 -109 -1 -109 -20z"/>
<path d="M5150 1755 c0 -19 5 -35 10 -35 6 0 10 16 10 35 0 19 -4 35 -10 35
-5 0 -10 -16 -10 -35z"/>
<path d="M5243 1775 c-17 -19 -16 -32 2 -39 11 -4 15 2 15 24 0 34 0 34 -17
15z"/>
<path d="M5338 1781 c11 -7 11 -9 -2 -14 -19 -7 -10 -37 10 -37 9 0 14 11 14
30 0 22 -5 30 -17 30 -14 0 -15 -2 -5 -9z"/>
<path d="M5450 1755 c0 -19 5 -35 10 -35 6 0 10 16 10 35 0 19 -4 35 -10 35
-5 0 -10 -16 -10 -35z"/>
<path d="M5530 1750 c0 -16 5 -30 11 -30 7 0 9 10 7 25 -3 13 0 26 6 29 6 2 3
5 -6 5 -13 1 -18 -7 -18 -29z"/>
<path d="M5610 1766 c0 -22 11 -46 21 -46 5 0 9 14 9 30 0 20 -5 30 -15 30 -8
0 -15 -6 -15 -14z"/>
<path d="M5812 1755 c0 -16 2 -22 5 -12 2 9 2 23 0 30 -3 6 -5 -1 -5 -18z"/>
<path d="M4520 1703 c0 -7 -19 -14 -42 -16 -26 -2 -15 -4 27 -4 39 0 61 2 50
4 -11 3 -23 10 -27 17 -6 8 -8 8 -8 -1z"/>
<path d="M4410 1689 c0 -5 5 -7 10 -4 6 3 10 8 10 11 0 2 -4 4 -10 4 -5 0 -10
-5 -10 -11z"/>
<path d="M1650 1666 l0 -24 108 2 c81 2 107 6 107 16 0 15 -2 16 -123 24 l-92
6 0 -24z"/>
<path d="M4588 1683 c7 -3 16 -2 19 1 4 3 -2 6 -13 5 -11 0 -14 -3 -6 -6z"/>
<path d="M4400 1640 c0 -19 7 -20 110 -20 103 0 110 1 110 20 0 19 -7 20 -110
20 -103 0 -110 -1 -110 -20z"/>
<path d="M5230 1632 c0 -19 5 -29 15 -29 8 0 15 9 15 19 0 10 -6 18 -12 18 -9
0 -8 4 2 10 13 8 12 10 -2 10 -13 0 -18 -8 -18 -28z"/>
<path d="M5330 1630 c0 -20 5 -30 15 -30 10 0 15 10 15 30 0 20 -5 30 -15 30
-10 0 -15 -10 -15 -30z"/>
<path d="M5450 1625 c0 -19 5 -35 10 -35 6 0 10 16 10 35 0 19 -4 35 -10 35
-5 0 -10 -16 -10 -35z"/>
<path d="M5530 1630 c0 -16 5 -30 10 -30 6 0 10 14 10 30 0 17 -4 30 -10 30
-5 0 -10 -13 -10 -30z"/>
<path d="M5620 1624 c0 -21 4 -33 10 -29 6 3 10 19 10 36 0 16 -4 29 -10 29
-5 0 -10 -16 -10 -36z"/>
<path d="M5748 1620 c2 -16 6 -30 8 -30 2 0 4 14 4 30 0 17 -4 30 -8 30 -5 0
-7 -13 -4 -30z"/>
<path d="M2690 1510 c0 -5 7 -10 15 -10 8 0 15 5 15 10 0 6 -7 10 -15 10 -8 0
-15 -4 -15 -10z"/>
<path d="M3005 270 c-3 -5 -1 -10 4 -10 6 0 11 5 11 10 0 6 -2 10 -4 10 -3 0
-8 -4 -11 -10z"/>
<path d="M2910 160 c0 -5 5 -10 10 -10 6 0 10 5 10 10 0 6 -4 10 -10 10 -5 0
-10 -4 -10 -10z"/>
<path d="M2940 157 c0 -10 8 -17 18 -17 9 0 13 4 7 8 -5 4 -13 11 -17 16 -5 5
-8 2 -8 -7z"/>
</g>
</svg>
